<?xml version="1.0" encoding="UTF-8" standalone="no"?>
<!-- スマホサイズだと大きいため、w,h共に80pxに設定、classNameで大きさ変えれる。※px指定 -->
<svg
   width="80"
   height="80"
   viewBox="0 0 100 100"
   xml:space="preserve"
   version="1.1"
   id="svg5"
   sodipodi:docname="icon_big.svg"
   inkscape:version="1.3.2 (091e20e, 2023-11-25)"
   xmlns:inkscape="http://www.inkscape.org/namespaces/inkscape"
   xmlns:sodipodi="http://sodipodi.sourceforge.net/DTD/sodipodi-0.dtd"
   xmlns="http://www.w3.org/2000/svg"
   xmlns:svg="http://www.w3.org/2000/svg"><defs
     id="defs5" /><sodipodi:namedview
     id="namedview5"
     pagecolor="#ffffff"
     bordercolor="#999999"
     borderopacity="1"
     inkscape:showpageshadow="2"
     inkscape:pageopacity="0"
     inkscape:pagecheckerboard="true"
     inkscape:deskcolor="#d1d1d1"
     inkscape:zoom="5.4342705"
     inkscape:cx="35.239321"
     inkscape:cy="47.476474"
     inkscape:window-width="1664"
     inkscape:window-height="1075"
     inkscape:window-x="0"
     inkscape:window-y="78"
     inkscape:window-maximized="0"
     inkscape:current-layer="svg5" /><path
     style="fill:#1773a3;fill-opacity:1;fill-rule:nonzero;stroke:none;stroke-width:2.31026;stroke-linecap:round;stroke-linejoin:round;stroke-dasharray:none;stroke-opacity:1;paint-order:stroke fill markers"
     d="M 35.60518,44.394126 70.923894,79.909055 H 53.975272 L 35.792675,61.264263 17.078117,79.904695 0.21234106,79.83057 Z"
     id="path2" /><path
     style="fill:#e99460;fill-opacity:1;fill-rule:nonzero;stroke:none;stroke-width:2.32777;stroke-linecap:round;stroke-linejoin:round;stroke-dasharray:none;stroke-opacity:1;paint-order:stroke fill markers"
     d="M 64.832506,44.333082 99.911401,79.913414 82.557267,79.834929 64.793263,61.695936 58.645191,67.569307 49.741386,58.608819 Z"
     id="path3" /><path
     style="fill:#1773a3;fill-opacity:1;fill-rule:nonzero;stroke:none;stroke-width:2.35022;stroke-linecap:round;stroke-linejoin:round;stroke-dasharray:none;stroke-opacity:1;paint-order:stroke fill markers"
     d="M 27.608327,32.647384 A 8.8820025,8.8820025 0 0 1 31.911976,20.848317 8.8820025,8.8820025 0 0 1 43.715404,25.143247 8.8820025,8.8820025 0 0 1 39.429195,36.946673 8.8820025,8.8820025 0 0 1 27.621407,32.673546"
     id="path4" /><path
     style="fill:#e99460;fill-opacity:1;fill-rule:nonzero;stroke:none;stroke-width:2.35022;stroke-linecap:round;stroke-linejoin:round;stroke-dasharray:none;stroke-opacity:1;paint-order:stroke fill markers"
     d="M 56.805129,32.647384 A 8.8820025,8.8820025 0 0 1 61.108781,20.848317 8.8820025,8.8820025 0 0 1 72.912207,25.143247 8.8820025,8.8820025 0 0 1 68.625998,36.946673 8.8820025,8.8820025 0 0 1 56.81821,32.673546"
     id="path5" /></svg>
